<?xml version="1.0" encoding="utf-8" ?>
<svg xmlns="http://www.w3.org/2000/svg" xmlns:xlink="http://www.w3.org/1999/xlink" viewBox="0 0 212 120" preserveAspectRatio="xMidYMid Meet">
	<path fill="#4F5051" d="M0 0L2.46815 0L17.5901 0L57.8635 0L75.39 0L113.959 0L191.387 0L211.732 0L211.933 0C211.971 0.664363 211.964 1.10272 211.671 1.72215C211.929 2.3144 211.975 2.82273 211.988 3.46266C212.166 11.7801 212.009 20.135 212.009 28.4556L212.007 76.9836C212.007 81.2208 212.42 117.978 211.782 119.59C211.724 119.737 211.65 119.869 211.562 120L104.43 120L101.289 120L65.25 120L56 120L35.75 120L32.75 120L0 120L0 87.4549L0 24.124L0 15.3915L0 13.4043L0 1.4316L0 0ZM160.131 87.7946C158.823 88.7407 157.436 89.1876 155.871 89.5078C155.974 90.4537 156.233 91.6514 155.725 92.4597C154.821 92.5386 153.506 92.5397 152.827 93.194C152.582 93.9027 152.613 94.0278 151.896 94.3757C151.767 94.4382 151.637 94.4912 151.502 94.5386C149.744 94.5825 148.02 95.7773 146.842 97.0136C145.006 98.9403 143.435 101.318 142.297 103.72C140.283 107.972 139.5 113.732 133.626 113.965C133.313 113.977 133.034 113.873 132.769 113.71C132.004 112.925 131.838 111.943 131.848 110.873C131.879 107.536 133.533 103.187 135.378 100.435C136.157 99.2723 137.198 98.1998 137.88 96.9867C138.138 96.5275 138.196 96.3489 138.068 95.8513C137.279 95.2516 136.571 94.7782 135.538 94.9193C133.535 95.1926 131.969 97.4393 130.847 98.9531C129.686 100.52 128.259 103.096 126.435 103.877C125.705 103.883 125.646 103.83 125.048 103.401C124.857 102.788 124.87 102.448 125.175 101.865C126.459 99.4143 130.8 97.1234 129.815 93.8928C129.61 93.2199 129.222 92.568 128.58 92.2443C128.15 92.0273 127.688 92.0215 127.231 92.1761C125.574 92.7366 123.331 95.106 122.573 96.6847C122.132 97.6029 121.73 99.051 120.945 99.7031L120.953 99.759C121.159 101.293 120.399 102.731 120.914 104.264C121.188 105.078 121.949 105.593 122.19 106.273L121.963 106.425C120.574 105.998 119.569 105.255 118.403 104.423L117.861 104.719C118.157 108.231 117.355 111.141 115.064 113.855C112.126 117.336 108.619 118.638 104.43 120L211.562 120C211.65 119.869 211.724 119.737 211.782 119.59C212.42 117.978 212.007 81.2208 212.007 76.9836L212.009 28.4556C212.009 20.135 212.166 11.7801 211.988 3.46266C211.975 2.82273 211.929 2.3144 211.671 1.72215C203.115 17.4398 193.885 32.7601 185 48.2887L174.461 66.5074C171.485 71.746 168.656 77.153 165.278 82.1473C163.83 84.289 162.359 86.4018 160.131 87.7946ZM76.8407 17.0675C71.0702 17.1181 52.436 16.0984 48.5615 19.9933C47.0527 21.5101 46.3834 24.5311 46.0667 26.5901C45.4192 30.7996 45.647 35.245 45.6297 39.5004C45.6117 43.957 45.4859 48.4275 45.5526 52.8816C45.6262 57.793 45.0837 64.9073 48.924 68.6027C50.4209 70.0431 52.94 70.4658 54.9345 70.7387C61.2413 71.6016 67.7959 71.239 74.1449 71.1908Q87.2064 70.993 100.266 71.2917C106.819 71.1549 116.961 69.7798 122.064 74.6899C124.109 76.6586 124.983 79.3846 125.025 82.1694C125.087 86.2208 123.674 90.0994 120.842 93.0036C120.154 93.7101 119.456 94.4218 118.715 95.0738C118.288 95.874 118.131 96.0752 118.252 96.99C118.851 98.0238 120.781 98.6373 120.945 99.7031C121.73 99.051 122.132 97.6029 122.573 96.6847C123.331 95.106 125.574 92.7366 127.231 92.1761C127.688 92.0215 128.15 92.0273 128.58 92.2443C129.222 92.568 129.61 93.2199 129.815 93.8928C130.8 97.1234 126.459 99.4143 125.175 101.865C124.87 102.448 124.857 102.788 125.048 103.401C125.646 103.83 125.705 103.883 126.435 103.877C128.259 103.096 129.686 100.52 130.847 98.9531C131.969 97.4393 133.535 95.1926 135.538 94.9193C136.571 94.7782 137.279 95.2516 138.068 95.8513C138.196 96.3489 138.138 96.5275 137.88 96.9867C137.198 98.1998 136.157 99.2723 135.378 100.435C133.533 103.187 131.879 107.536 131.848 110.873C131.838 111.943 132.004 112.925 132.769 113.71C133.034 113.873 133.313 113.977 133.626 113.965C139.5 113.732 140.283 107.972 142.297 103.72C143.435 101.318 145.006 98.9403 146.842 97.0136C148.02 95.7773 149.744 94.5825 151.502 94.5386C151.637 94.4912 151.767 94.4382 151.896 94.3757C152.613 94.0278 152.582 93.9027 152.827 93.194C153.506 92.5397 154.821 92.5386 155.725 92.4597C156.233 91.6514 155.974 90.4537 155.871 89.5078C153.574 89.7519 151.147 89.8381 148.863 89.4337C146.899 89.0858 144.508 88.161 143.115 86.6885C138.537 81.8515 135.091 74.4088 131.767 68.6236L112.017 34.2798C108.855 28.7838 105.966 22.7933 102.351 17.6068C101.691 17.094 100.927 17.1956 100.137 17.216C96.8789 16.3687 81.1707 16.9693 76.8407 17.0675ZM0 0L0 1.4316L0 13.4043L0 15.3915L0 24.124L0 87.4549L0 120L32.75 120L35.75 120C35.7286 115.771 36.1218 111.595 36.1451 107.392C36.1557 105.489 35.8458 103.579 35.7855 101.673C35.6534 97.4949 35.7015 93.2635 35.7946 89.0841C35.8337 87.3276 36.3837 83.8669 35.5633 82.37L34.0688 80.9348C28.6448 75.2616 28.0458 67.5239 27.6414 60.0712C27.357 54.83 27.5309 49.4856 27.5216 44.2338C27.5066 35.7486 26.9146 26.05 28.766 17.7762C29.5644 14.2083 31.0055 10.6148 33.4822 7.86918C39.0832 1.66001 47.7869 0.881245 55.6133 0.480075C56.3155 0.23094 57.1289 0.137775 57.8635 0L17.5901 0L2.46815 0L0 0ZM100.266 71.2917C98.5295 71.547 96.9006 72.2113 95.2238 72.7081C88.9699 74.5611 82.2423 76.7132 78.1818 82.1731C76.9312 83.8546 75.955 85.7332 75.0115 87.599C71.5948 87.9897 67.8466 87.6749 64.3958 87.6724C54.1277 87.6647 44.5096 88.2868 35.5633 82.37C36.3837 83.8669 35.8337 87.3276 35.7946 89.0841C35.7015 93.2635 35.6534 97.4949 35.7855 101.673C35.8458 103.579 36.1557 105.489 36.1451 107.392C36.1218 111.595 35.7286 115.771 35.75 120L56 120L65.25 120L101.289 120L104.43 120C108.619 118.638 112.126 117.336 115.064 113.855C117.355 111.141 118.157 108.231 117.861 104.719L118.403 104.423C119.569 105.255 120.574 105.998 121.963 106.425L122.19 106.273C121.949 105.593 121.188 105.078 120.914 104.264C120.399 102.731 121.159 101.293 120.953 99.759L120.945 99.7031C120.781 98.6373 118.851 98.0238 118.252 96.99C118.131 96.0752 118.288 95.874 118.715 95.0738C119.456 94.4218 120.154 93.7101 120.842 93.0036C123.674 90.0994 125.087 86.2208 125.025 82.1694C124.983 79.3846 124.109 76.6586 122.064 74.6899C116.961 69.7798 106.819 71.1549 100.266 71.2917ZM113.959 0L114.014 0.339747C114.316 0.580526 114.586 0.877388 114.828 1.17698C117.375 4.32215 120.23 10.3253 122.374 14.1115L139.28 44.1816Q143.633 51.9087 148.087 59.5781C149.421 61.8709 151.246 64.3631 152.271 66.7717C152.381 67.0299 152.385 67.3364 152.356 67.6113C154.521 66.1818 179.765 20.1582 183.149 14.1434C185.023 10.8116 188.944 2.65273 191.426 0.254796L191.387 0L113.959 0ZM75.39 0C74.1735 0.30338 71.6577 -0.216593 70.8156 0.391781Q82.8176 0.506337 94.8199 0.447452C101.208 0.448812 107.63 0.573984 114.014 0.339747L113.959 0L75.39 0ZM191.387 0L191.426 0.254796C194.808 0.239593 209.791 1.30535 211.732 0L191.387 0ZM57.8635 0C57.1289 0.137775 56.3155 0.23094 55.6133 0.480075Q63.2148 0.489209 70.8156 0.391781C71.6577 -0.216593 74.1735 0.30338 75.39 0L57.8635 0Z"/>
	<path fill="#67666E" fill-opacity="0.25098041" d="M57.8635 0L75.39 0C74.1735 0.30338 71.6577 -0.216593 70.8156 0.391781Q63.2148 0.489213 55.6133 0.480075C56.3155 0.23094 57.1289 0.137775 57.8635 0Z"/>
	<path fill="#67666E" fill-opacity="0.12941177" d="M191.387 0L211.732 0C209.791 1.30535 194.808 0.239593 191.426 0.254796L191.387 0Z"/>
	<path fill="#9E9BA1" fill-opacity="0.24705882" d="M75.39 0L113.959 0L114.014 0.339747C107.63 0.573984 101.208 0.448812 94.8199 0.447452Q82.8176 0.50636 70.8156 0.391781C71.6577 -0.216593 74.1735 0.30338 75.39 0Z"/>
	<path fill="#BE2525" d="M100.266 71.2917C106.819 71.1549 116.961 69.7798 122.064 74.6899C124.109 76.6586 124.983 79.3846 125.025 82.1694C125.087 86.2208 123.674 90.0994 120.842 93.0036C120.154 93.7101 119.456 94.4218 118.715 95.0738C118.288 95.874 118.131 96.0752 118.252 96.99C118.851 98.0238 120.781 98.6373 120.945 99.7031L120.953 99.759C121.159 101.293 120.399 102.731 120.914 104.264C121.188 105.078 121.949 105.593 122.19 106.273L121.963 106.425C120.574 105.998 119.569 105.255 118.403 104.423L117.861 104.719C118.157 108.231 117.355 111.141 115.064 113.855C112.126 117.336 108.619 118.638 104.43 120L101.289 120C100.687 119.666 99.9076 119.487 99.2622 119.231C95.0638 117.569 92.8339 115.001 91.0799 110.941L90.5297 107.439C90.3693 99.7536 93.4855 93.3511 96.8057 86.6332C97.95 84.3178 99.0593 81.6477 100.856 79.7519C101.807 78.7482 102.972 78.5343 104.307 78.5094C105.249 78.4919 106.194 78.5129 107.135 78.5314C103.873 86.9417 94.5619 101.739 96.2407 110.655C96.7543 112.638 97.4589 114.304 99.3039 115.397C99.6467 115.6 100.013 115.758 100.385 115.901C101.361 116.015 102.168 116.033 103.135 115.842L104.226 115.495C104.755 115.26 105.275 114.982 105.778 114.695C108.061 113.392 110.272 110.932 110.946 108.381C111.343 106.881 111.184 105.387 110.389 104.042C108.422 100.713 105.025 100.385 101.667 99.5152C101.949 98.4932 102.393 97.5247 102.809 96.552C105.527 95.7769 108.183 94.9829 110.609 93.4887C114.03 91.3824 117.164 88.1848 118.093 84.1586C118.513 82.3401 118.36 80.5129 117.349 78.9116C116.007 76.7844 113.585 75.6759 111.214 75.1269C103.707 73.3889 94.2862 76.139 87.9067 80.1373C84.8176 82.0733 81.789 84.9073 80.9677 88.6019C80.1407 92.3221 82.1923 93.4376 83.9575 96.2115C83.8893 96.2461 83.8208 96.2772 83.7494 96.3051C81.7662 97.0795 79.1826 96.6473 77.3116 95.7725L75.6721 94.2115C74.9272 92.0791 74.5537 89.8314 75.0115 87.599C75.955 85.7332 76.9312 83.8546 78.1818 82.1731C82.2423 76.7132 88.9699 74.5611 95.2238 72.7081C96.9006 72.2113 98.5295 71.547 100.266 71.2917ZM110.985 98.0997C114.134 99.6286 116.503 101.337 117.861 104.719L118.403 104.423C119.569 105.255 120.574 105.998 121.963 106.425L122.19 106.273C121.949 105.593 121.188 105.078 120.914 104.264C120.399 102.731 121.159 101.293 120.953 99.759L120.945 99.7031C120.781 98.6373 118.851 98.0238 118.252 96.99C118.131 96.0752 118.288 95.874 118.715 95.0738C116.124 96.5486 113.905 97.5037 110.985 98.0997Z"/>
	<path fill="#BE2525" d="M0 0L2.46815 0L17.5901 0L17.6539 0.520066C17.2751 2.02365 3.3979 13.4814 1.30358 14.7302Q0.674123 15.1049 0 15.3915L0 13.4043L0 1.4316L0 0ZM2.46815 0C5.68428 0.721895 16.4483 -0.106332 17.6539 0.520066L17.5901 0L2.46815 0ZM0 1.4316L0 13.4043C0.0330992 13.3187 0.0634452 13.2334 0.0916218 13.1459C0.641082 11.4413 0.716877 2.82842 0 1.4316Z"/>
	<path fill="#AD4947" fill-opacity="0.70588237" d="M0 1.4316C0.716877 2.82842 0.641082 11.4413 0.0916218 13.1459C0.0634452 13.2334 0.0330992 13.3187 0 13.4043L0 1.4316Z"/>
	<path fill="#BE2525" fill-opacity="0.38431373" d="M2.46815 0L17.5901 0L17.6539 0.520066C16.4483 -0.106332 5.68428 0.721895 2.46815 0Z"/>
	<path fill="#4F5051" d="M0 24.124C1.63536 21.5146 15.1024 10.3554 18.3948 8.44798C17.8816 18.3409 18.3169 28.4443 18.3004 38.3626L18.1051 87.7257C14.1911 87.7547 3.24848 88.3459 0 87.4549L0 24.124Z"/>
	<path fill="#BE2525" d="M185.899 87.3741Q186.318 87.3168 186.741 87.3046C187.585 87.2868 188.357 87.4796 188.977 88.0681C189.289 88.6302 189.34 89.1016 189.234 89.7213C189.011 91.0243 187.668 93.1575 186.596 93.9241L186.344 94.3323C185.757 94.1402 185.178 93.9246 184.709 93.5088C184.251 93.1024 184.075 92.5077 184.042 91.9139C183.962 90.4339 184.934 88.4591 185.899 87.3741Z"/>
	<path fill="#BE2525" d="M201.708 78.6473C203.398 78.2722 205.254 77.6266 206.853 78.6203C207.565 79.0628 207.989 79.8369 208.171 80.6374C209.245 85.372 204.547 94.3954 202.054 98.2663C200.243 101.078 194.738 105.935 193.852 108.243C193.613 108.866 193.782 109.802 193.915 110.429C194.178 111.674 194.647 113.471 195.779 114.211C196.208 114.492 196.768 114.512 197.252 114.388C201.553 113.282 205.991 102.682 207.559 103.307C207.953 104.323 207.262 106.461 206.84 107.431C205.391 110.768 202.217 114.85 198.757 116.213C197.218 116.819 194.975 117.118 193.41 116.431C191.82 115.734 190.88 113.258 189.924 112.748C189.905 112.738 189.585 112.855 189.53 112.876C186.118 114.14 185.494 118.407 180.603 116.183C179.59 115.723 178.98 114.714 178.609 113.706C178.242 112.711 178.036 110.909 177.29 110.182C176.292 110.19 175.531 110.536 174.828 111.248C173.93 112.159 173.292 113.436 172.558 114.487C170.797 117.008 167.237 117.705 164.315 117.758C164.297 117.728 164.28 117.697 164.261 117.667C163.461 116.36 162.198 116.272 162.617 114.365C162.936 112.913 164.644 111.497 165.868 110.736C166.475 110.358 167.787 109.877 168.173 109.342C168.092 108.135 167.566 107.368 166.672 106.586C166.549 106.479 166.429 106.37 166.302 106.269C166.175 108.261 162.653 113.164 161.144 114.504C159.704 115.782 157.85 116.656 155.888 116.544C154.985 116.492 153.76 116.194 153.147 115.488C152.127 114.311 152.129 112.582 150.93 111.518C150.866 112.607 149.738 113.895 148.949 114.6C147.573 115.829 145.578 116.752 143.702 116.645C141.7 116.532 141.053 114.829 139.384 114.072C137.86 115.649 134.989 116.712 132.848 116.751C132.182 116.763 131.507 116.744 130.842 116.705C130.821 116.68 130.801 116.655 130.78 116.63C129.123 114.691 127.804 114.828 128.011 111.68C128.114 110.112 129.152 106.572 128.439 105.29C126.778 106.405 124.37 106.704 122.435 106.324C122.353 106.308 122.271 106.292 122.19 106.273C121.949 105.593 121.188 105.078 120.914 104.264C120.399 102.731 121.159 101.293 120.953 99.759L120.945 99.7031C121.73 99.051 122.132 97.6029 122.573 96.6847C123.331 95.106 125.574 92.7366 127.231 92.1761C127.688 92.0215 128.15 92.0273 128.58 92.2443C129.222 92.568 129.61 93.2199 129.815 93.8928C130.8 97.1234 126.459 99.4143 125.175 101.865C124.87 102.448 124.857 102.788 125.048 103.401C125.646 103.83 125.705 103.883 126.435 103.877C128.259 103.096 129.686 100.52 130.847 98.9531C131.969 97.4393 133.535 95.1926 135.538 94.9193C136.571 94.7782 137.279 95.2516 138.068 95.8513C138.196 96.3489 138.138 96.5275 137.88 96.9867C137.198 98.1998 136.157 99.2723 135.378 100.435C133.533 103.187 131.879 107.536 131.848 110.873C131.838 111.943 132.004 112.925 132.769 113.71C133.034 113.873 133.313 113.977 133.626 113.965C139.5 113.732 140.283 107.972 142.297 103.72C143.435 101.318 145.006 98.9403 146.842 97.0136C148.02 95.7773 149.744 94.5825 151.502 94.5386C152.564 94.8153 153.777 95.2061 154.503 96.0851C155.748 95.807 157.164 95.3358 158.442 95.5155C159.021 95.7931 159.317 95.8481 159.63 96.4349C159.433 98.2905 158.22 100.38 157.556 102.14C156.79 104.173 156.173 106.459 155.831 108.604C155.492 110.728 156.999 112.388 156.857 113.741C159.753 112.852 161.885 110.75 163.303 108.098C163.8 107.169 164.717 105.433 164.496 104.384C164.502 104.345 164.509 104.307 164.515 104.269C164.851 101.781 160.993 99.8023 165.742 95.8766Q166.06 95.6139 166.403 95.3835Q166.746 95.1532 167.109 94.9576Q167.473 94.7619 167.854 94.6028Q168.234 94.4437 168.629 94.3227Q169.024 94.2017 169.428 94.1199Q169.833 94.0381 170.244 93.9963Q170.654 93.9545 171.067 93.9532Q171.48 93.9518 171.891 93.9909C173.28 94.1254 174.59 94.6568 175.493 95.7547C176.253 96.6805 176.832 98.1747 176.699 99.3845C176.617 100.136 176.199 100.733 175.615 101.19C174.876 101.768 174.069 101.793 173.167 101.786C172.883 101.644 172.59 101.585 172.48 101.269C172.009 99.9127 174.291 97.2453 172.427 96.3026C171.669 95.919 170.734 95.8116 169.926 96.0959C169.475 96.2544 169.017 96.9465 168.825 97.3719C168.42 98.2702 168.691 99.1623 169.036 100.035C169.704 101.722 172.738 107.665 174.228 108.305C174.744 108.526 175.228 108.515 175.743 108.297C176.28 108.069 177.237 107.382 177.479 106.853C179.515 104.767 179.622 95.0101 183.663 94.979C184.195 94.9749 184.829 95.2238 185.208 95.6011C185.66 96.0505 185.783 96.6387 185.767 97.2512C185.667 101.127 182.231 104.534 182.466 110.115C182.513 111.226 182.582 112.219 183.19 113.181C183.673 113.516 183.936 113.708 184.559 113.592C185.959 113.332 187.085 112.211 187.816 111.064C189.977 107.674 190.239 103.631 191.263 99.8339C193.173 92.7435 196.924 84.7594 201.521 79.0463C201.632 78.9087 201.672 78.8207 201.708 78.6473ZM151.553 97.6231C147.806 101.129 144.724 107.092 144.523 112.312C144.504 112.808 144.56 113.261 144.715 113.734C145.109 113.932 145.143 114.021 145.577 113.878C147.583 113.342 148.962 111.123 149.953 109.411C151.427 106.861 153.918 101.517 153.162 98.5253C153.081 98.2047 152.896 97.9014 152.712 97.6309C152.285 97.5487 151.979 97.5345 151.553 97.6231ZM204.945 80.6236C204.297 82.1729 202.747 83.5553 201.91 85.0834C200.124 88.3416 196.133 97.649 195.219 101.127L195.379 101.333L195.567 101.127C198.882 98.8202 205.135 85.9192 205.823 82.228C205.94 81.6048 206.034 81.1302 205.682 80.5943L204.945 80.6236ZM168.404 113.124L168.31 113.192C167.55 113.741 166.421 114.055 165.905 114.847L165.997 115.221L166.753 115.474C167.968 115.398 168.582 115.238 169.401 114.314C169.701 113.975 169.717 113.828 169.797 113.386L169.491 113.079C169.128 113.08 168.764 113.069 168.404 113.124Z"/>
</svg>
